HIERARCHY
ROOT RootJoint
{
    OFFSET   0.000000   0.000000   0.000000
    CHANNELS 6 Xposition Yposition Zposition Xrotation Yrotation Zrotation
    JOINT pelvis_lowerback
    {
        OFFSET   0.000000   0.093605   0.000000
        CHANNELS 3 Xrotation Yrotation Zrotation
        JOINT lowerback_torso
        {
            OFFSET   0.000000   0.100000   0.000000
            CHANNELS 3 Xrotation Yrotation Zrotation
            JOINT torso_head
            {
                OFFSET   0.000000   0.282350   0.000000
                CHANNELS 3 Xrotation Yrotation Zrotation
                End Site
                {
                    OFFSET   0.000000   0.192650   0.000000
                }
            }
            JOINT rTorso_Clavicle
            {
                OFFSET  -0.001000   0.157500   0.000000
                CHANNELS 3 Xrotation Yrotation Zrotation
                JOINT rShoulder
                {
                    OFFSET  -0.117647   0.000000   0.000000
                    CHANNELS 3 Xrotation Yrotation Zrotation
                    JOINT rElbow
                    {
                        OFFSET  -0.245000   0.000000   0.000000
                        CHANNELS 3 Xrotation Yrotation Zrotation
                        JOINT rWrist
                        {
                            OFFSET  -0.240000   0.000000   0.000000
                            CHANNELS 3 Xrotation Yrotation Zrotation
                            End Site
                            {
                                OFFSET  -0.116353  -0.002500   0.000000
                            }
                        }
                    }
                }
            }
            JOINT lTorso_Clavicle
            {
                OFFSET   0.001000   0.157500   0.000000
                CHANNELS 3 Xrotation Yrotation Zrotation
                JOINT lShoulder
                {
                    OFFSET   0.117647   0.000000   0.000000
                    CHANNELS 3 Xrotation Yrotation Zrotation
                    JOINT lElbow
                    {
                        OFFSET   0.245000   0.000000   0.000000
                        CHANNELS 3 Xrotation Yrotation Zrotation
                        JOINT lWrist
                        {
                            OFFSET   0.240000   0.000000   0.000000
                            CHANNELS 3 Xrotation Yrotation Zrotation
                            End Site
                            {
                                OFFSET   0.116353  -0.002500   0.000000
                            }
                        }
                    }
                }
            }
        }
    }
    JOINT rHip
    {
        OFFSET  -0.100000  -0.051395   0.000000
        CHANNELS 3 Xrotation Yrotation Zrotation
        JOINT rKnee
        {
            OFFSET   0.000000  -0.410000   0.000000
            CHANNELS 3 Xrotation Yrotation Zrotation
            JOINT rAnkle
            {
                OFFSET   0.000000  -0.390000   0.000000
                CHANNELS 3 Xrotation Yrotation Zrotation
                JOINT rToeJoint
                {
                    OFFSET   0.000000  -0.050000   0.130000
                    CHANNELS 3 Xrotation Yrotation Zrotation
                    End Site
                    {
                        OFFSET  -0.010000   0.002000   0.060000
                    }
                }
            }
        }
    }
    JOINT lHip
    {
        OFFSET   0.100000  -0.051395   0.000000
        CHANNELS 3 Xrotation Yrotation Zrotation
        JOINT lKnee
        {
            OFFSET   0.000000  -0.410000   0.000000
            CHANNELS 3 Xrotation Yrotation Zrotation
            JOINT lAnkle
            {
                OFFSET   0.000000  -0.390000   0.000000
                CHANNELS 3 Xrotation Yrotation Zrotation
                JOINT lToeJoint
                {
                    OFFSET   0.000000  -0.050000   0.130000
                    CHANNELS 3 Xrotation Yrotation Zrotation
                    End Site
                    {
                        OFFSET   0.010000   0.002000   0.060000
                    }
                }
            }
        }
    }
}
MOTION
Frames: 8
Frame Time:   0.008333
 -2.414107   0.918527   4.049675  -1.747909  -0.340211  -0.110101   6.337172   1.843003  -0.803751  -0.883418   0.285753   0.837343  -3.830693  -1.341240   2.260464   2.145997   3.940241   3.529241   3.089306  14.511941  55.586203  -0.000891  72.531122   0.001100  -0.964410   3.296557  -7.551672   3.612398   0.166379  -2.465723  11.846629 -14.876258 -51.836943 -179.999527 -77.396890 -179.999177   0.634911  -5.547902   9.096416   4.973330  -1.984708  -2.553797   7.018986   0.000334   0.000009  -7.464028  -3.028749   2.736916  -4.085253  -0.000113  -0.000040  -4.295910  -3.980860   4.848933  19.437504  -0.003651   0.001680  -7.801481   3.636038   2.170182  -8.718451   0.000733  -0.001309
 -2.412824   0.918862   4.050898  -1.768350  -0.336004  -0.139346   6.197635   1.830447  -0.788665  -0.891724   0.331425   0.893774  -3.816212  -1.352658   2.300905   2.124344   3.884208   3.621485   3.179991  14.584477  55.574375  -0.000783  72.231200   0.000754  -0.959568   3.478570  -7.618121   3.660512   0.178821  -2.530985  11.968887 -14.907989 -51.875493 -179.999666 -77.441122 -179.999355   0.583798  -5.454518   9.115793   4.877900  -2.049746  -2.612466   7.369812   0.000496  -0.000235  -7.344614  -3.033069   2.797283  -4.617790  -0.000320   0.000365  -3.884487  -3.924253   4.814578  18.849904  -0.003423   0.001314  -7.857889   3.607131   2.245014  -8.301839   0.000708  -0.001060
 -2.411558   0.919198   4.052094  -1.806187  -0.337577  -0.182953   6.070681   1.819223  -0.761182  -0.890632   0.377152   0.958587  -3.801101  -1.362605   2.336668   2.119092   3.835157   3.723612   3.279348  14.647935  55.565169  -0.000838  71.928920   0.000545  -0.966633   3.548724  -7.655027   3.699105   0.186354  -2.595762  12.075152 -14.946758 -51.917345 -179.999755 -77.468566 -179.999491   0.545194  -5.433960   9.127365   4.781102  -2.135635  -2.651626   7.752226   0.000609  -0.000547  -7.212158  -3.060440   2.862240  -4.016660  -0.000026  -0.000443  -3.476903  -3.868907   4.794401  18.302593  -0.003191   0.001038  -7.900937   3.583118   2.316497  -7.939938   0.000670  -0.000857
 -2.410290   0.919483   4.053247  -1.846468  -0.326346  -0.220537   5.947729   1.800195  -0.734766  -0.888237   0.412697   1.023793  -3.786819  -1.371905   2.369712   2.124746   3.785679   3.825511   3.380911  14.705757  55.561854  -0.000903  71.642663   0.000376  -0.978768   3.576701  -7.670389   3.731368   0.190478  -2.654268  12.170508 -14.986246 -51.957062 -179.999820 -77.489854 -179.999600   0.512996  -5.446123   9.135570   4.697672  -2.196596  -2.701004   8.114398   0.000717  -0.000661  -7.103764  -3.063897   2.908916  -4.773280  -0.000411   0.000148  -3.093815  -3.823636   4.766220  17.796370  -0.002971   0.000798  -7.942319   3.554588   2.383491  -7.609034   0.000641  -0.000692
 -2.409026   0.919729   4.054348  -1.886825  -0.312602  -0.257637   5.829816   1.779087  -0.705298  -0.886681   0.441778   1.089512  -3.774044  -1.380542   2.400635   2.136245   3.736894   3.925433   3.480910  14.758686  55.561631  -0.000933  71.373347   0.000215  -0.992674   3.587465  -7.673768   3.759292   0.192735  -2.708831  12.257409 -15.024329 -51.994047 -179.999868 -77.508523 -179.999686   0.484078  -5.469538   9.143998   4.621958  -2.250848  -2.751112   8.457536   0.000796  -0.000715  -7.004459  -3.065441   2.954153  -5.452221  -0.000689   0.000491  -2.732563  -3.782627   4.736934  17.324643  -0.002760   0.000605  -7.983915   3.525693   2.445074  -7.301364   0.000619  -0.000558
 -2.407771   0.919943   4.055394  -1.926203  -0.300471  -0.294525   5.717220   1.757399  -0.673430  -0.886218   0.466522   1.155204  -3.762571  -1.388589   2.429806   2.150627   3.689819   4.021865   3.577219  14.807552  55.563295  -0.000921  71.120857   0.000060  -1.007125   3.590197  -7.670509   3.784059   0.193986  -2.759608  12.337304 -15.060435 -52.028366 -179.999903 -77.525479 -179.999754   0.457162  -5.496565   9.153283   4.551949  -2.301137  -2.800941   8.781423   0.000845  -0.000742  -6.911887  -3.066714   2.996707  -6.064508  -0.000886   0.000707  -2.392078  -3.743819   4.707003  16.883991  -0.002559   0.000458  -8.025316   3.498687   2.501775  -7.014366   0.000602  -0.000450
 -2.406526   0.920129   4.056382  -1.964134  -0.291307  -0.331050   5.610084   1.735701  -0.639910  -0.886779   0.488001   1.220211  -3.752172  -1.396114   2.457387   2.166221   3.644933   4.113953   3.668831  14.852878  55.566042  -0.000875  70.884597  -0.000084  -1.021557   3.589062  -7.663626   3.806312   0.194611  -2.806719  12.411093 -15.094434 -52.060125 -179.999927 -77.541073 -179.999807   0.431760  -5.524549   9.163180   4.486639  -2.348284  -2.850353   9.086268   0.000869  -0.000753  -6.824956  -3.068173   3.036295  -6.618719  -0.001020   0.000842  -2.071527  -3.706417   4.676420  16.472007  -0.002368   0.000351  -8.066267   3.474266   2.553978  -6.745960   0.000587  -0.000362
 -2.405308   0.920175   4.057173  -2.035481  -0.282007  -0.375293   5.561028   1.707612  -0.614552  -0.875087   0.529567   1.293292  -3.737538  -1.410649   2.483476   2.183245   3.660782   4.266430   3.763611  14.909371  55.494533  -0.002025  70.388552   0.000809  -0.990060   3.762553  -7.727623   3.825543   0.182365  -2.884671  12.407667 -15.144932 -52.034986 -179.999881 -77.433455 -179.999765   0.402014  -5.457334   9.190136   4.297879  -2.451111  -2.891096   9.687240   0.000978  -0.001245  -6.864632  -3.085614   3.075736  -7.165839  -0.001128   0.001333  -1.759920  -3.701359   4.645187  16.137919  -0.002146   0.000352  -8.187363   3.478227   2.667121  -6.410539   0.000436  -0.000305
